<?xml version="1.0" encoding="utf-8"?>
<!-- Generator: Adobe Illustrator 19.0.0, SVG Export Plug-In . SVG Version: 6.00 Build 0)  -->
<svg version="1.1" id="Ebene_1" xmlns="http://www.w3.org/2000/svg" xmlns:xlink="http://www.w3.org/1999/xlink" x="0px" y="0px"
	 viewBox="-1458.3 1259.1 190.3 47.9" style="enable-background:new -1458.3 1259.1 190.3 47.9;" xml:space="preserve">
<style type="text/css">
	.st0{fill:#FFFFFF;}
</style>
<g>
	<g>
		<g>
			<path class="st0" d="M-1269,1260.1v35.8h-41.6v-6.8c2.1-0.4,3.6-2.2,3.6-4.4c0-2.2-1.6-4-3.6-4.4v-20.2H-1269 M-1268,1259.1
				h-43.6v22.1h0.1c1.9,0,3.5,1.6,3.5,3.5s-1.6,3.5-3.5,3.5h-0.1v8.8h43.6V1259.1L-1268,1259.1z"/>
		</g>
		<path class="st0" d="M-1289.7,1287.4c-1.4,0.2-3.4,0.3-5.1,0.2c0-0.8,0.1-2.1,0.2-3h-0.1c-0.8,2-2.6,3.3-5,3.3
			c-3.6,0-5.4-2.6-5.4-7c0-5.2,3-8.3,7.6-8.3c0.8,0,1.6,0.1,2.5,0.1v-4.8c-0.7-0.1-1.7-0.2-2.6-0.3v-1.6c1.5-0.2,3.5-0.3,5.3-0.2
			v19.6c0.7,0.1,1.7,0.2,2.5,0.3L-1289.7,1287.4L-1289.7,1287.4z M-1294.8,1280v-4.9c-0.9-0.2-1.8-0.3-2.6-0.3
			c-2.8,0-4.7,1.7-4.7,5.9c0,3.2,1,5,3.3,5C-1296.2,1285.7-1294.8,1282.5-1294.8,1280L-1294.8,1280z"/>
		<path class="st0" d="M-1276.2,1278.8c0-3.4-1.8-6.2-5.9-6.2c-4.2,0-6.6,3.3-6.6,7.7c0,5.2,2.4,7.6,7,7.6c1.8,0,3.6-0.3,5-0.9
			l-0.2-2.2c-1.2,0.6-2.8,0.9-4.3,0.9c-3.2,0-4.8-1.7-4.7-5.6h9.7C-1276.2,1279.5-1276.2,1279.1-1276.2,1278.8L-1276.2,1278.8z
			 M-1278.9,1278.1h-6.9c0.3-2.2,1.7-3.6,3.6-3.6C-1280.2,1274.5-1278.8,1276-1278.9,1278.1L-1278.9,1278.1z"/>
	</g>
	<g>
		<path class="st0" d="M-1370.3,1274.5c-1.9,0-3.3,1.5-3.6,3.6h6.9C-1367,1276-1368.2,1274.5-1370.3,1274.5z"/>
		<path class="st0" d="M-1382.4,1272.7c0-1.8-0.9-3.1-4.1-3.1c-1,0-1.9,0-2.7,0.1v6.5c0.6,0,1.2,0,1.8,0
			C-1384.2,1276.2-1382.4,1274.9-1382.4,1272.7z"/>
		<path class="st0" d="M-1387.4,1278.3c-0.3,0-1.4,0-1.9,0v7c0.5,0.1,1.4,0.1,2.6,0.1c3.3,0,4.7-1.6,4.7-3.8
			C-1382,1279.1-1384.3,1278.3-1387.4,1278.3z"/>
		<rect x="-1458.3" y="1284.9" class="st0" width="4.9" height="22"/>
		<rect x="-1438.3" y="1284.9" class="st0" width="4.9" height="22"/>
		<polygon class="st0" points="-1428.2,1280.6 -1428.2,1275.7 -1458.3,1275.7 -1458.3,1280.6 -1428.2,1280.6 		"/>
		<circle class="st0" cx="-1430.8" cy="1269.3" r="3.5"/>
		<path class="st0" d="M-1315,1284.7c0-1.9,1.6-3.5,3.5-3.5l0,0v-22.1h-106.8v16.4h15.2v5.1h-25.1l0,0l0,0v26.3h4.9v-21.7h4.9v21.8
			h4.9v-21.8h5.3v21.8h5.1v-10h91.6v-8.7l0,0C-1313.4,1288.2-1315,1286.6-1315,1284.7z M-1338.3,1266.9c1,0,1.8,0.7,1.8,1.7
			s-0.8,1.8-1.8,1.8s-1.8-0.8-1.8-1.8C-1340.2,1267.7-1339.3,1266.9-1338.3,1266.9z M-1386.9,1287.7c-1.2,0-3.2-0.1-5.1-0.1h-2.6
			v-1.6c0.8-0.2,1.7-0.4,2.6-0.4v-16.1c-0.9-0.1-1.8-0.2-2.6-0.4v-1.6h2.5c1.4,0,3.6-0.1,6-0.1c4.4,0,6.5,1.8,6.5,4.8
			c0,2.1-1.5,4-3.6,4.7v0.1c2.8,0.5,4,2.5,4,4.6C-1379.2,1284-1380.7,1287.7-1386.9,1287.7z M-1364.4,1280h-9.7
			c-0.1,4,1.5,5.6,4.7,5.6c1.5,0,3.1-0.4,4.3-0.9l0.2,2.2c-1.4,0.6-3.2,0.9-5,0.9c-4.5,0-7-2.4-7-7.6c0-4.4,2.4-7.7,6.6-7.7
			s5.9,2.8,5.9,6.2C-1364.3,1279.1-1364.3,1279.5-1364.4,1280z M-1352.8,1275.2c-3.4-0.5-4.9,1.8-4.9,6.5l0.1,5.9l-2.9,0.1v-12.8
			c-0.7-0.1-1.7-0.2-2.5-0.3v-1.6c1.5-0.2,3.5-0.3,5.2-0.2c0,0.9-0.1,2.3-0.3,3.5l0,0c0.7-2.1,2.1-4.1,5.4-3.8L-1352.8,1275.2z
			 M-1344.5,1287.6h-7.8v-1.6c0.8-0.2,1.7-0.4,2.6-0.4V1268c-0.7-0.1-1.7-0.2-2.6-0.3v-1.6c1.5-0.2,3.5-0.3,5.2-0.2v19.7
			c0.9,0.1,1.8,0.2,2.5,0.4v1.6H-1344.5z M-1334.5,1287.6h-7.8v-1.6c0.8-0.2,1.7-0.4,2.6-0.4v-10.7c-0.7-0.1-1.7-0.2-2.6-0.3
			l-0.1-1.9c1.5,0,3.7,0.1,5.4,0v12.9c0.9,0.1,1.8,0.2,2.5,0.4V1287.6L-1334.5,1287.6z M-1320.7,1287.6v-9.5c0-2.1-0.6-3.3-2.5-3.3
			c-2.5,0-4.2,2.5-4.2,5.7l0.1,7.1h-3.1l0.3-12.7c-0.7-0.1-1.7-0.2-2.6-0.3v-1.6c1.5-0.2,3.5-0.3,5.2-0.2c0,0.9-0.1,2.2-0.2,3.1l0,0
			c0.9-2.1,2.7-3.4,5.2-3.4c3.4,0,4.4,2.1,4.4,4.7l0.1,10.4H-1320.7z"/>
		<rect x="-1448.4" y="1284.9" class="st0" width="4.9" height="22"/>
	</g>
</g>
</svg>
