<?xml version="1.0" encoding="utf-8"?>
<!-- Generator: Adobe Illustrator 19.0.0, SVG Export Plug-In . SVG Version: 6.00 Build 0)  -->
<svg version="1.1" id="Ebene_1" xmlns="http://www.w3.org/2000/svg" xmlns:xlink="http://www.w3.org/1999/xlink" x="0px" y="0px"
	 viewBox="-1458.2 1252.4 190.3 47.8" style="enable-background:new -1458.2 1252.4 190.3 47.8;" xml:space="preserve">
<style type="text/css">
	.st0{fill:#B5050E;}
	.st1{fill:#253276;}
	.st2{fill:#FFFFFF;}
</style>
<g>
	<polygon class="st0" points="-1311.5,1252.4 -1267.9,1252.4 -1267.9,1290.2 -1311.5,1290.2 	"/>
	<path class="st1" d="M-1453.3,1278.2v22h-4.9v-22H-1453.3L-1453.3,1278.2z M-1443.4,1278.2v22h-4.9v-22H-1443.4L-1443.4,1278.2z
		 M-1433.3,1278.2v22h-4.9v-22H-1433.3L-1433.3,1278.2z M-1458.2,1269h30.1v4.9h-30.1V1269L-1458.2,1269z M-1403,1300.2h-4.9v-21.8
		h-5.3v21.8h-4.9v-21.8h-4.9v21.8h-4.9v-26.3h25.1v-5.1h-15.4v-16.4h106.9v37.8h-91.6L-1403,1300.2L-1403,1300.2z M-1434.1,1262.6
		c0-2,1.6-3.5,3.5-3.5c2,0,3.5,1.6,3.5,3.5c0,2-1.6,3.5-3.5,3.5C-1432.5,1266.2-1434.1,1264.6-1434.1,1262.6L-1434.1,1262.6z"/>
	<path class="st2" d="M-1314.9,1278c0-1.9,1.6-3.5,3.5-3.5c1.9,0,3.5,1.6,3.5,3.5s-1.6,3.5-3.5,3.5
		C-1313.3,1281.5-1314.9,1279.9-1314.9,1278L-1314.9,1278z"/>
	<path class="st2" d="M-1379,1274.9c0,2.4-1.5,6.1-7.8,6.1c-1.2,0-3.2-0.1-5.1-0.1h-2.6v-1.6c0.8-0.2,1.7-0.4,2.6-0.4v-16.1
		c-0.9-0.1-1.8-0.2-2.6-0.4v-1.6h2.5c1.4,0,3.6-0.1,6-0.1c4.4,0,6.5,1.8,6.5,4.8c0,2.1-1.5,4-3.6,4.7v0.1
		C-1380.3,1270.8-1379,1272.8-1379,1274.9L-1379,1274.9z M-1382.3,1266c0-1.8-0.9-3.1-4.1-3.1c-1,0-1.9,0-2.7,0.1v6.5
		c0.6,0,1.2,0,1.8,0C-1384,1269.5-1382.3,1268.2-1382.3,1266L-1382.3,1266z M-1381.9,1275c0-2.6-2.3-3.4-5.4-3.4c-0.3,0-1.4,0-1.9,0
		v7c0.5,0.1,1.4,0.1,2.6,0.1C-1383.3,1278.8-1381.9,1277.2-1381.9,1275L-1381.9,1275z"/>
	<path class="st2" d="M-1364.2,1272.1c0,0.4,0,0.8-0.1,1.3h-9.7c-0.1,4,1.5,5.6,4.7,5.6c1.5,0,3.1-0.4,4.3-0.9l0.2,2.2
		c-1.4,0.6-3.2,0.9-5,0.9c-4.5,0-7-2.4-7-7.6c0-4.4,2.4-7.7,6.6-7.7C-1365.9,1265.9-1364.2,1268.7-1364.2,1272.1L-1364.2,1272.1z
		 M-1366.9,1271.4c0.1-2.2-1.2-3.6-3.3-3.6c-1.9,0-3.3,1.5-3.6,3.6H-1366.9L-1366.9,1271.4z"/>
	<path class="st2" d="M-1289.5,1280.7c-1.4,0.2-3.4,0.3-5.1,0.2c0-0.8,0.1-2.1,0.2-3h-0.1c-0.8,2-2.6,3.3-5,3.3
		c-3.6,0-5.4-2.6-5.4-7c0-5.2,3-8.3,7.6-8.3c0.8,0,1.6,0.1,2.5,0.1v-4.8c-0.7-0.1-1.7-0.2-2.6-0.3v-1.6c1.5-0.2,3.5-0.3,5.3-0.2
		v19.6c0.7,0.1,1.7,0.2,2.5,0.3L-1289.5,1280.7L-1289.5,1280.7z M-1294.7,1273.3v-4.9c-0.9-0.2-1.8-0.3-2.6-0.3
		c-2.8,0-4.7,1.7-4.7,5.9c0,3.2,1,5,3.3,5C-1296.1,1279-1294.7,1275.8-1294.7,1273.3L-1294.7,1273.3z"/>
	<path class="st2" d="M-1276.1,1272.1c0-3.4-1.8-6.2-5.9-6.2c-4.2,0-6.6,3.3-6.6,7.7c0,5.2,2.4,7.6,7,7.6c1.8,0,3.6-0.3,5-0.9
		l-0.2-2.2c-1.2,0.6-2.8,0.9-4.3,0.9c-3.2,0-4.8-1.7-4.7-5.6h9.7C-1276.1,1272.8-1276.1,1272.4-1276.1,1272.1L-1276.1,1272.1z
		 M-1278.8,1271.4h-6.9c0.3-2.2,1.7-3.6,3.6-3.6C-1280,1267.8-1278.7,1269.3-1278.8,1271.4L-1278.8,1271.4z"/>
	<path class="st2" d="M-1352.4,1265.9l-0.1,2.6c-3.4-0.5-4.9,1.8-4.9,6.5l0.1,5.9l-2.9,0.1v-12.8c-0.7-0.1-1.7-0.2-2.5-0.3v-1.6
		c1.5-0.2,3.5-0.3,5.2-0.2c0,0.9-0.1,2.3-0.3,3.5l0,0C-1357.2,1267.6-1355.7,1265.5-1352.4,1265.9L-1352.4,1265.9z"/>
	<path class="st2" d="M-1346.9,1278.9c0.9,0.1,1.8,0.2,2.5,0.4v1.6h-7.8v-1.6c0.8-0.2,1.7-0.4,2.6-0.4v-17.6
		c-0.7-0.1-1.7-0.2-2.6-0.3v-1.6c1.5-0.2,3.5-0.3,5.2-0.2v19.7H-1346.9z"/>
	<path class="st2" d="M-1334.4,1280.9h-7.8v-1.6c0.8-0.2,1.7-0.4,2.6-0.4v-10.7c-0.7-0.1-1.7-0.2-2.6-0.3l-0.1-1.9
		c1.5,0,3.7,0.1,5.4,0v12.9c0.9,0.1,1.8,0.2,2.5,0.4V1280.9L-1334.4,1280.9z"/>
	<path class="st2" d="M-1336.4,1261.9c0,1-0.8,1.8-1.8,1.8s-1.8-0.8-1.8-1.8s0.8-1.7,1.8-1.7S-1336.4,1260.9-1336.4,1261.9
		L-1336.4,1261.9z"/>
	<path class="st2" d="M-1320.5,1280.9v-9.5c0-2.1-0.6-3.3-2.5-3.3c-2.5,0-4.2,2.5-4.2,5.7l0.1,7.1h-3.1l0.3-12.7
		c-0.7-0.1-1.7-0.2-2.6-0.3v-1.6c1.5-0.2,3.5-0.3,5.2-0.2c0,0.9-0.1,2.2-0.2,3.1l0,0c0.9-2.1,2.7-3.4,5.2-3.4c3.4,0,4.4,2.1,4.4,4.7
		l0.1,10.4H-1320.5L-1320.5,1280.9z"/>
</g>
</svg>
