<svg version="1" xmlns="http://www.w3.org/2000/svg" width="413.333" height="413.333" viewBox="0 0 310.000000 310.000000"><path d="M150.5 36.1c-.4.6-1.3.8-2.1.5-.8-.3-1.4-.1-1.4.4 0 .6-.7 1-1.6 1-1.9 0-7.2 5.5-8.7 9-1.3 3.1-1.7 11.9-.5 12.6.4.3.8 1.4.8 2.4 0 3.3 9 11 12.8 11 1.2 0 2.4.5 2.7 1 .4.7 1.2.7 2.5 0 1-.5 2.9-1 4.2-1 1.3 0 2.9-.5 3.6-1.2.7-.7 1.2-.9 1.2-.4 0 1.5 6.3-6 7.7-9.4 1.7-3.8 2.4-11.8 1.1-12.6-.4-.3-.8-1.3-.8-2.3 0-1.9-6.9-9.1-8.8-9.1-.7 0-1.2-.4-1.2-.9 0-.6-.9-.8-2-.6-1.1.2-2 0-2-.6 0-1.3-6.7-1.1-7.5.2zM3.4 89.9c-.2.2-.4 6.2-.4 13.3 0 12.6 0 12.8 2.3 12.9 1.2 0 38.2.1 82.2.2l80 .2.1 57.5c0 31.6.4 59.1.9 61 .4 1.9.7 8.4.7 14.5l-.2 11 10.8-.2c5.9-.1 11.6-.2 12.7-.3 2 0 2-.7 2-59.2v-59.3l13.5-.1c7.4 0 13.7.3 14 .7.3.4.5 27.1.4 59.3 0 32.2.2 58.6.5 58.6 1.1.1 19.6.1 22.8.1l3.2-.1v-52.3c0-28.7 0-55.4.1-59.3v-7h15.3l15.2.1v58.7c0 32.3.3 59 .7 59.3.8.8 24.6 1 25.4.3.6-.7.7-140.5 0-141.6-.2-.4-31.1-.7-68.6-.7-41.1 0-68.4-.3-68.7-.9-.4-.5-.6-6.7-.6-13.8 0-7-.3-12.8-.6-12.9-2.1-.3-163.3-.3-163.7 0zM11.8 139.8l-8.8.3V260l2.8.1c8.4.2 22.4-.1 23-.5.4-.2.7-27.1.7-59.8v-59.3L25 140c-2.5-.3-8.4-.4-13.2-.2z"/><path d="M62.9 140l-5.5.5v59.8l.1 59.9H66c4.7 0 10.6-.1 13.2-.1l4.7-.1V140.1l-7.7-.3c-4.2-.2-10.2-.1-13.3.2zM114.3 139.8c-2 .3-2.3.9-2.4 5-.3 23.7 0 114.5.4 114.8.5.5 9.9.7 21.2.5l5-.1V140.1l-11-.3c-6-.2-12-.2-13.2 0z"/></svg>